<mxfile host="app.diagrams.net" modified="2023-11-02T20:40:38.898Z" agent="Mozilla/5.0 (Windows NT 10.0; Win64; x64; rv:109.0) Gecko/20100101 Firefox/119.0" etag="ZFydojrV6Ht5vf_w40cB" version="22.0.8" type="device">
  <diagram name="Page-1" id="b5b7bab2-c9e2-2cf4-8b2a-24fd1a2a6d21">
    <mxGraphModel dx="2074" dy="1142" grid="1" gridSize="10" guides="1" tooltips="1" connect="1" arrows="1" fold="1" page="1" pageScale="1" pageWidth="827" pageHeight="1169" background="none" math="0" shadow="0">
      <root>
        <mxCell id="0" />
        <mxCell id="1" parent="0" />
        <mxCell id="gWJbVaERdnbdGJg79cWP-36" value="" style="shape=folder;fontStyle=1;spacingTop=10;tabWidth=40;tabHeight=14;tabPosition=left;html=1;whiteSpace=wrap;" vertex="1" parent="1">
          <mxGeometry x="290" y="160" width="1080" height="1040" as="geometry" />
        </mxCell>
        <mxCell id="gWJbVaERdnbdGJg79cWP-5" value="" style="shape=folder;fontStyle=1;spacingTop=10;tabWidth=40;tabHeight=14;tabPosition=left;html=1;whiteSpace=wrap;" vertex="1" parent="1">
          <mxGeometry x="310" y="190" width="560" height="850" as="geometry" />
        </mxCell>
        <mxCell id="6e0c8c40b5770093-30" value="" style="group" parent="1" vertex="1" connectable="0">
          <mxGeometry x="1045.5" y="294.5" width="230" height="315.5" as="geometry" />
        </mxCell>
        <mxCell id="6e0c8c40b5770093-24" value="" style="group" parent="6e0c8c40b5770093-30" vertex="1" connectable="0">
          <mxGeometry width="230" height="315.5" as="geometry" />
        </mxCell>
        <mxCell id="6e0c8c40b5770093-25" value="" style="shape=folder;fontStyle=1;spacingTop=10;tabWidth=123;tabHeight=24;tabPosition=left;html=1;rounded=0;shadow=0;comic=0;labelBackgroundColor=none;strokeWidth=1;fontFamily=Verdana;fontSize=10;align=center;" parent="6e0c8c40b5770093-24" vertex="1">
          <mxGeometry width="230" height="315.5" as="geometry" />
        </mxCell>
        <mxCell id="gWJbVaERdnbdGJg79cWP-3" value="&lt;font style=&quot;font-size: 11px;&quot;&gt;Frontend&lt;/font&gt;" style="text;html=1;strokeColor=none;fillColor=none;align=center;verticalAlign=middle;whiteSpace=wrap;rounded=0;" vertex="1" parent="6e0c8c40b5770093-24">
          <mxGeometry y="0.0009374999999991473" width="60" height="19.71875" as="geometry" />
        </mxCell>
        <mxCell id="6e0c8c40b5770093-33" value="" style="shape=folder;fontStyle=1;spacingTop=10;tabWidth=123;tabHeight=24;tabPosition=left;html=1;rounded=0;shadow=0;comic=0;labelBackgroundColor=none;strokeColor=#000000;strokeWidth=1;fillColor=#ffffff;fontFamily=Verdana;fontSize=10;fontColor=#000000;align=right;labelPosition=left;verticalLabelPosition=top;verticalAlign=bottom;" parent="1" vertex="1">
          <mxGeometry x="370.5" y="260" width="419.5" height="540" as="geometry" />
        </mxCell>
        <mxCell id="6e0c8c40b5770093-42" value="" style="shape=folder;fontStyle=1;spacingTop=10;tabWidth=50;tabHeight=17;tabPosition=left;html=1;rounded=0;shadow=0;comic=0;labelBackgroundColor=none;strokeColor=#000000;strokeWidth=1;fillColor=#ffffff;fontFamily=Verdana;fontSize=10;fontColor=#000000;align=left;" parent="1" vertex="1">
          <mxGeometry x="590" y="330" width="152" height="450" as="geometry" />
        </mxCell>
        <mxCell id="6e0c8c40b5770093-43" value="Crud" style="shape=folder;fontStyle=1;spacingTop=10;tabWidth=50;tabHeight=17;tabPosition=left;html=1;rounded=0;shadow=0;comic=0;labelBackgroundColor=none;strokeColor=#000000;strokeWidth=1;fillColor=#ffffff;fontFamily=Verdana;fontSize=10;fontColor=#000000;align=center;" parent="1" vertex="1">
          <mxGeometry x="381.75" y="585" width="112" height="70" as="geometry" />
        </mxCell>
        <mxCell id="6e0c8c40b5770093-44" value="&lt;div&gt;Schemas&lt;/div&gt;(Pydantic Models)" style="shape=folder;fontStyle=1;spacingTop=10;tabWidth=50;tabHeight=17;tabPosition=left;html=1;rounded=0;shadow=0;comic=0;labelBackgroundColor=none;strokeColor=#000000;strokeWidth=1;fillColor=#ffffff;fontFamily=Verdana;fontSize=10;fontColor=#000000;align=center;" parent="1" vertex="1">
          <mxGeometry x="378.25" y="440" width="112" height="70" as="geometry" />
        </mxCell>
        <mxCell id="6e0c8c40b5770093-45" value="Websockets" style="shape=folder;fontStyle=1;spacingTop=10;tabWidth=50;tabHeight=17;tabPosition=left;html=1;rounded=0;shadow=0;comic=0;labelBackgroundColor=none;strokeColor=#000000;strokeWidth=1;fillColor=#ffffff;fontFamily=Verdana;fontSize=10;fontColor=#000000;align=center;" parent="1" vertex="1">
          <mxGeometry x="380" y="310" width="120" height="100" as="geometry" />
        </mxCell>
        <mxCell id="6e0c8c40b5770093-47" value="" style="shape=folder;fontStyle=1;spacingTop=10;tabWidth=123;tabHeight=24;tabPosition=left;html=1;rounded=0;shadow=0;comic=0;labelBackgroundColor=none;strokeWidth=1;fontFamily=Verdana;fontSize=10;align=center;" parent="1" vertex="1">
          <mxGeometry x="943.5" y="730" width="332" height="130" as="geometry" />
        </mxCell>
        <mxCell id="6e0c8c40b5770093-73" value="GenuineGoods" style="text;html=1;align=left;verticalAlign=top;spacingTop=-4;fontSize=10;fontFamily=Verdana" parent="1" vertex="1">
          <mxGeometry x="290" y="160" width="130" height="20" as="geometry" />
        </mxCell>
        <mxCell id="gWJbVaERdnbdGJg79cWP-2" value="&lt;div style=&quot;font-size: 11px;&quot; align=&quot;left&quot;&gt;API&lt;/div&gt;" style="text;html=1;strokeColor=none;fillColor=none;align=left;verticalAlign=middle;whiteSpace=wrap;rounded=0;" vertex="1" parent="1">
          <mxGeometry x="378.25" y="260" width="60" height="30" as="geometry" />
        </mxCell>
        <mxCell id="gWJbVaERdnbdGJg79cWP-6" value="&lt;div&gt;Database&lt;/div&gt;&lt;div&gt;web2_db&lt;br&gt;&lt;/div&gt;" style="shape=cylinder3;whiteSpace=wrap;html=1;boundedLbl=1;backgroundOutline=1;size=15;" vertex="1" parent="1">
          <mxGeometry x="374.5" y="1080" width="199.5" height="80" as="geometry" />
        </mxCell>
        <mxCell id="gWJbVaERdnbdGJg79cWP-27" style="edgeStyle=orthogonalEdgeStyle;rounded=0;orthogonalLoop=1;jettySize=auto;html=1;exitX=0.5;exitY=0;exitDx=0;exitDy=0;exitPerimeter=0;" edge="1" parent="1" source="gWJbVaERdnbdGJg79cWP-7">
          <mxGeometry relative="1" as="geometry">
            <mxPoint x="436" y="720" as="targetPoint" />
          </mxGeometry>
        </mxCell>
        <mxCell id="gWJbVaERdnbdGJg79cWP-7" value="&lt;div style=&quot;font-size: 11px;&quot;&gt;&lt;font face=&quot;Verdana&quot; style=&quot;font-size: 11px;&quot;&gt;ORM Models&lt;/font&gt;&lt;/div&gt;&lt;div style=&quot;font-size: 11px;&quot;&gt;&lt;font face=&quot;Verdana&quot; style=&quot;font-size: 11px;&quot;&gt;models.py&lt;font style=&quot;font-size: 11px;&quot;&gt;&lt;br&gt;&lt;/font&gt;&lt;/font&gt;&lt;/div&gt;" style="whiteSpace=wrap;html=1;shape=mxgraph.basic.document" vertex="1" parent="1">
          <mxGeometry x="378.25" y="724.5" width="115.5" height="50" as="geometry" />
        </mxCell>
        <mxCell id="gWJbVaERdnbdGJg79cWP-11" value="Categories" style="whiteSpace=wrap;html=1;shape=mxgraph.basic.document" vertex="1" parent="1">
          <mxGeometry x="608.25" y="456.63" width="115.5" height="30" as="geometry" />
        </mxCell>
        <mxCell id="gWJbVaERdnbdGJg79cWP-13" value="Chats" style="whiteSpace=wrap;html=1;shape=mxgraph.basic.document" vertex="1" parent="1">
          <mxGeometry x="608.25" y="390" width="115.5" height="30" as="geometry" />
        </mxCell>
        <mxCell id="gWJbVaERdnbdGJg79cWP-14" value="Followings" style="whiteSpace=wrap;html=1;shape=mxgraph.basic.document" vertex="1" parent="1">
          <mxGeometry x="608.25" y="510" width="115.5" height="30" as="geometry" />
        </mxCell>
        <mxCell id="gWJbVaERdnbdGJg79cWP-15" value="Offers" style="whiteSpace=wrap;html=1;shape=mxgraph.basic.document" vertex="1" parent="1">
          <mxGeometry x="608.25" y="570" width="115.5" height="30" as="geometry" />
        </mxCell>
        <mxCell id="gWJbVaERdnbdGJg79cWP-16" value="Subcategories" style="whiteSpace=wrap;html=1;shape=mxgraph.basic.document" vertex="1" parent="1">
          <mxGeometry x="608.25" y="620" width="115.5" height="30" as="geometry" />
        </mxCell>
        <mxCell id="gWJbVaERdnbdGJg79cWP-17" value="Users" style="whiteSpace=wrap;html=1;shape=mxgraph.basic.document" vertex="1" parent="1">
          <mxGeometry x="608.25" y="670" width="115.5" height="30" as="geometry" />
        </mxCell>
        <mxCell id="gWJbVaERdnbdGJg79cWP-19" value="HTTP request" style="text;html=1;strokeColor=none;fillColor=none;align=center;verticalAlign=middle;whiteSpace=wrap;rounded=0;" vertex="1" parent="1">
          <mxGeometry x="880" y="500" width="100" height="30" as="geometry" />
        </mxCell>
        <mxCell id="gWJbVaERdnbdGJg79cWP-21" value="validate data " style="text;html=1;strokeColor=none;fillColor=none;align=center;verticalAlign=middle;whiteSpace=wrap;rounded=0;" vertex="1" parent="1">
          <mxGeometry x="508.75" y="456.63" width="60" height="30" as="geometry" />
        </mxCell>
        <mxCell id="gWJbVaERdnbdGJg79cWP-25" value="call CRUD function" style="text;html=1;strokeColor=none;fillColor=none;align=center;verticalAlign=middle;whiteSpace=wrap;rounded=0;" vertex="1" parent="1">
          <mxGeometry x="510" y="590" width="60" height="30" as="geometry" />
        </mxCell>
        <mxCell id="gWJbVaERdnbdGJg79cWP-28" value="using ORM models to query DB" style="text;html=1;strokeColor=none;fillColor=none;align=center;verticalAlign=middle;whiteSpace=wrap;rounded=0;" vertex="1" parent="1">
          <mxGeometry x="440" y="680" width="60" height="20" as="geometry" />
        </mxCell>
        <mxCell id="gWJbVaERdnbdGJg79cWP-29" value="" style="endArrow=classic;startArrow=classic;html=1;rounded=0;entryX=0.011;entryY=0.737;entryDx=0;entryDy=0;entryPerimeter=0;" edge="1" parent="1" target="6e0c8c40b5770093-25">
          <mxGeometry width="50" height="50" relative="1" as="geometry">
            <mxPoint x="740" y="527" as="sourcePoint" />
            <mxPoint x="850" y="630" as="targetPoint" />
          </mxGeometry>
        </mxCell>
        <mxCell id="gWJbVaERdnbdGJg79cWP-30" value="" style="endArrow=classic;html=1;rounded=0;entryX=0;entryY=0;entryDx=112;entryDy=56.75;entryPerimeter=0;" edge="1" parent="1">
          <mxGeometry width="50" height="50" relative="1" as="geometry">
            <mxPoint x="590" y="493" as="sourcePoint" />
            <mxPoint x="490.25" y="493.38" as="targetPoint" />
          </mxGeometry>
        </mxCell>
        <mxCell id="gWJbVaERdnbdGJg79cWP-31" value="" style="endArrow=classic;html=1;rounded=0;entryX=0;entryY=0;entryDx=112;entryDy=43.5;entryPerimeter=0;exitX=0.007;exitY=0.662;exitDx=0;exitDy=0;exitPerimeter=0;" edge="1" parent="1" source="6e0c8c40b5770093-42" target="6e0c8c40b5770093-43">
          <mxGeometry width="50" height="50" relative="1" as="geometry">
            <mxPoint x="800" y="680" as="sourcePoint" />
            <mxPoint x="850" y="630" as="targetPoint" />
          </mxGeometry>
        </mxCell>
        <mxCell id="gWJbVaERdnbdGJg79cWP-32" value="" style="endArrow=classic;html=1;rounded=0;entryX=0.5;entryY=0;entryDx=0;entryDy=0;entryPerimeter=0;" edge="1" parent="1" source="6e0c8c40b5770093-43" target="gWJbVaERdnbdGJg79cWP-7">
          <mxGeometry width="50" height="50" relative="1" as="geometry">
            <mxPoint x="800" y="680" as="sourcePoint" />
            <mxPoint x="850" y="630" as="targetPoint" />
          </mxGeometry>
        </mxCell>
        <mxCell id="gWJbVaERdnbdGJg79cWP-33" value="" style="endArrow=classic;html=1;rounded=0;exitX=0;exitY=0;exitDx=112;exitDy=56.75;exitPerimeter=0;entryX=0.278;entryY=0.038;entryDx=0;entryDy=0;entryPerimeter=0;" edge="1" parent="1" source="6e0c8c40b5770093-43" target="gWJbVaERdnbdGJg79cWP-6">
          <mxGeometry width="50" height="50" relative="1" as="geometry">
            <mxPoint x="800" y="680" as="sourcePoint" />
            <mxPoint x="850" y="630" as="targetPoint" />
            <Array as="points">
              <mxPoint x="540" y="642" />
              <mxPoint x="540" y="890" />
              <mxPoint x="430" y="890" />
            </Array>
          </mxGeometry>
        </mxCell>
        <mxCell id="gWJbVaERdnbdGJg79cWP-34" value="query DB" style="text;html=1;strokeColor=none;fillColor=none;align=center;verticalAlign=middle;whiteSpace=wrap;rounded=0;" vertex="1" parent="1">
          <mxGeometry x="460" y="850" width="60" height="30" as="geometry" />
        </mxCell>
        <mxCell id="gWJbVaERdnbdGJg79cWP-37" value="&lt;p style=&quot;line-height: 120%;&quot;&gt;&lt;font style=&quot;font-size: 11px;&quot;&gt;Backend&lt;/font&gt;&lt;/p&gt;" style="text;html=1;strokeColor=none;fillColor=none;align=center;verticalAlign=middle;whiteSpace=wrap;rounded=0;" vertex="1" parent="1">
          <mxGeometry x="310" y="180" width="60" height="30" as="geometry" />
        </mxCell>
        <mxCell id="gWJbVaERdnbdGJg79cWP-38" value="ConnectionManager" style="whiteSpace=wrap;html=1;shape=mxgraph.basic.document" vertex="1" parent="1">
          <mxGeometry x="383" y="375" width="114" height="30" as="geometry" />
        </mxCell>
        <mxCell id="gWJbVaERdnbdGJg79cWP-41" value="&amp;nbsp;Websocket Endpoint" style="text;html=1;strokeColor=none;fillColor=none;align=center;verticalAlign=middle;whiteSpace=wrap;rounded=0;" vertex="1" parent="1">
          <mxGeometry x="510" y="360" width="60" height="30" as="geometry" />
        </mxCell>
        <mxCell id="gWJbVaERdnbdGJg79cWP-42" value="" style="endArrow=classic;html=1;rounded=0;entryX=1;entryY=0.5;entryDx=0;entryDy=0;entryPerimeter=0;exitX=0;exitY=0.5;exitDx=0;exitDy=0;exitPerimeter=0;" edge="1" parent="1" source="gWJbVaERdnbdGJg79cWP-13" target="gWJbVaERdnbdGJg79cWP-38">
          <mxGeometry width="50" height="50" relative="1" as="geometry">
            <mxPoint x="610" y="390" as="sourcePoint" />
            <mxPoint x="700" y="760" as="targetPoint" />
            <Array as="points">
              <mxPoint x="560" y="405" />
              <mxPoint x="560" y="390" />
            </Array>
          </mxGeometry>
        </mxCell>
        <mxCell id="gWJbVaERdnbdGJg79cWP-43" value="" style="endArrow=classic;startArrow=classic;html=1;rounded=0;exitX=1;exitY=0.5;exitDx=0;exitDy=0;exitPerimeter=0;entryX=-0.015;entryY=0.347;entryDx=0;entryDy=0;entryPerimeter=0;" edge="1" parent="1" source="gWJbVaERdnbdGJg79cWP-13" target="6e0c8c40b5770093-25">
          <mxGeometry width="50" height="50" relative="1" as="geometry">
            <mxPoint x="650" y="810" as="sourcePoint" />
            <mxPoint x="1044" y="385" as="targetPoint" />
          </mxGeometry>
        </mxCell>
        <mxCell id="gWJbVaERdnbdGJg79cWP-46" value="WS connection" style="text;html=1;strokeColor=none;fillColor=none;align=center;verticalAlign=middle;whiteSpace=wrap;rounded=0;" vertex="1" parent="1">
          <mxGeometry x="900" y="370" width="60" height="30" as="geometry" />
        </mxCell>
        <mxCell id="gWJbVaERdnbdGJg79cWP-47" value="Offers" style="shape=folder;fontStyle=1;spacingTop=10;tabWidth=50;tabHeight=17;tabPosition=left;html=1;rounded=0;shadow=0;comic=0;labelBackgroundColor=none;strokeColor=#000000;strokeWidth=1;fillColor=#ffffff;fontFamily=Verdana;fontSize=10;fontColor=#000000;align=center;" vertex="1" parent="1">
          <mxGeometry x="980" y="774.5" width="112" height="70" as="geometry" />
        </mxCell>
        <mxCell id="gWJbVaERdnbdGJg79cWP-48" value="Chats" style="shape=folder;fontStyle=1;spacingTop=10;tabWidth=50;tabHeight=17;tabPosition=left;html=1;rounded=0;shadow=0;comic=0;labelBackgroundColor=none;strokeColor=#000000;strokeWidth=1;fillColor=#ffffff;fontFamily=Verdana;fontSize=10;fontColor=#000000;align=center;" vertex="1" parent="1">
          <mxGeometry x="1140" y="774.5" width="112" height="70" as="geometry" />
        </mxCell>
        <mxCell id="gWJbVaERdnbdGJg79cWP-49" value="Storage" style="text;html=1;strokeColor=none;fillColor=none;align=center;verticalAlign=middle;whiteSpace=wrap;rounded=0;" vertex="1" parent="1">
          <mxGeometry x="940" y="730" width="60" height="30" as="geometry" />
        </mxCell>
        <mxCell id="gWJbVaERdnbdGJg79cWP-50" value="" style="endArrow=classic;html=1;rounded=0;exitX=0.985;exitY=0.733;exitDx=0;exitDy=0;exitPerimeter=0;entryX=0.929;entryY=0.264;entryDx=0;entryDy=0;entryPerimeter=0;" edge="1" parent="1" source="gWJbVaERdnbdGJg79cWP-15" target="gWJbVaERdnbdGJg79cWP-47">
          <mxGeometry width="50" height="50" relative="1" as="geometry">
            <mxPoint x="650" y="660" as="sourcePoint" />
            <mxPoint x="700" y="610" as="targetPoint" />
            <Array as="points">
              <mxPoint x="990" y="592" />
              <mxPoint x="990" y="690" />
              <mxPoint x="1084" y="690" />
            </Array>
          </mxGeometry>
        </mxCell>
        <mxCell id="gWJbVaERdnbdGJg79cWP-51" value="" style="endArrow=classic;html=1;rounded=0;entryX=0;entryY=0;entryDx=81;entryDy=17;entryPerimeter=0;" edge="1" parent="1" target="gWJbVaERdnbdGJg79cWP-48">
          <mxGeometry width="50" height="50" relative="1" as="geometry">
            <mxPoint x="720" y="420" as="sourcePoint" />
            <mxPoint x="700" y="610" as="targetPoint" />
            <Array as="points">
              <mxPoint x="720" y="440" />
              <mxPoint x="820" y="440" />
              <mxPoint x="820" y="580" />
              <mxPoint x="1000" y="580" />
              <mxPoint x="1000" y="680" />
              <mxPoint x="1220" y="680" />
            </Array>
          </mxGeometry>
        </mxCell>
        <mxCell id="gWJbVaERdnbdGJg79cWP-52" value="save chat history" style="text;html=1;strokeColor=none;fillColor=none;align=center;verticalAlign=middle;whiteSpace=wrap;rounded=0;" vertex="1" parent="1">
          <mxGeometry x="1092" y="650" width="98" height="30" as="geometry" />
        </mxCell>
        <mxCell id="gWJbVaERdnbdGJg79cWP-53" value="save offer images" style="text;html=1;strokeColor=none;fillColor=none;align=center;verticalAlign=middle;whiteSpace=wrap;rounded=0;" vertex="1" parent="1">
          <mxGeometry x="920" y="630" width="60" height="30" as="geometry" />
        </mxCell>
        <mxCell id="gWJbVaERdnbdGJg79cWP-54" value="Search" style="whiteSpace=wrap;html=1;shape=mxgraph.basic.document" vertex="1" parent="1">
          <mxGeometry x="608.25" y="724.5" width="115.5" height="30" as="geometry" />
        </mxCell>
        <mxCell id="gWJbVaERdnbdGJg79cWP-55" value="&lt;font size=&quot;1&quot;&gt;&lt;b&gt;&lt;font style=&quot;font-size: 10px;&quot; face=&quot;Verdana&quot;&gt;Endpoints&lt;/font&gt;&lt;/b&gt;&lt;/font&gt;" style="text;html=1;strokeColor=none;fillColor=none;align=center;verticalAlign=middle;whiteSpace=wrap;rounded=0;" vertex="1" parent="1">
          <mxGeometry x="590" y="340" width="60" height="30" as="geometry" />
        </mxCell>
      </root>
    </mxGraphModel>
  </diagram>
</mxfile>
